<?xml version="1.0" encoding="UTF-8"?>
<!-- Generated by Pixelmator Pro 2.4.3 -->
<svg width="800" height="800" viewBox="0 0 800 800" xmlns="http://www.w3.org/2000/svg" xmlns:xlink="http://www.w3.org/1999/xlink">
    <path id="Path" fill="#0acf83" stroke="none" visibility="hidden" d="M 109 398.160004 C 109 374.649994 126.720001 356.109985 151.389999 356.109985 C 166.220001 356.109985 179.390015 363.639984 186.26001 375.459991 L 174.670013 382.179993 C 170.389999 374.179993 161.580002 369.089996 151.389999 369.089996 C 133.899994 369.089996 122.32 381.480011 122.32 398.160004 C 122.32 414.839996 133.869995 427.230011 151.389999 427.230011 C 161.580002 427.230011 170.5 422.139984 174.670013 414.149994 L 186.26001 420.75 C 179.540009 432.559998 166.330002 440.209991 151.389999 440.209991 C 126.720001 440.209991 109 421.679993 109 398.160004 Z"/>
    <g id="Group">
        <path id="path1" fill="#0acf83" stroke="none" d="M 777.205322 288.696442 C 757.693115 450.878662 700.205627 640.650391 547.360046 768.843445 C 696.227112 708.785645 793.670776 564.301575 793.570374 403.776428 C 793.756836 364.82373 788.243347 326.053223 777.205322 288.696442 Z"/>
        <path id="path2" fill="#0acf83" stroke="none" d="M 144.10817 91.371521 C 212.758057 70.321838 278.171936 39.891968 338.495728 0.944092 C 266.0224 10.653687 198.221512 42.194153 144.10817 91.371521 Z"/>
        <path id="path3" fill="#0acf83" stroke="none" d="M 468.367249 0 C 524.856812 36.297119 585.874817 65.007446 649.851563 85.391907 C 598.711548 40.243469 535.753296 10.620422 468.367249 0 Z"/>
        <path id="path4" fill="#0acf83" stroke="none" d="M 26.405571 263.51947 C 12.198934 305.404663 5.107139 349.373016 5.42472 393.600708 C 5.10986 558.862061 108.385391 706.602295 263.699127 763.073486 C 101.831757 630.999084 44.449116 430.631897 26.405571 263.51947 Z"/>
        <path id="path5" fill="#0acf83" stroke="none" d="M 736.292603 286.38855 C 741.657043 241.508423 744.52887 196.365112 744.894836 151.167114 C 704.577026 142.808533 664.78479 132.089844 625.723572 119.066406 C 567.431213 100.501648 511.842194 74.329712 460.394592 41.227295 C 442.456055 29.547852 425.446106 16.500793 409.515961 2.202881 L 401.858002 2.202881 C 386.352051 16.068604 369.836548 28.761902 352.448029 40.178162 C 297.556396 75.693481 237.995514 103.408569 175.474594 122.528076 C 139.532211 133.993408 103.00972 143.552856 66.059372 151.167114 C 66.059372 187.673584 68.262428 229.00592 72.983086 272.751099 C 89.348129 424.967285 141.590561 607.39563 288.77121 727.720825 C 324.250366 756.919373 363.484467 781.229065 405.424713 800 C 449.34024 780.427124 490.272217 754.752014 527.008606 723.734375 C 666.216614 606.975891 718.563904 434.093903 736.292603 286.38855 Z M 506.657166 647.783813 C 489.982483 662.091919 472.158539 675.003906 453.366028 686.388489 C 443.399994 692.368164 433.119415 697.92804 422.628998 703.068237 C 417.373871 706.585632 411.501007 709.077332 405.319855 710.411682 C 399.459656 709.108398 393.881165 706.763 388.849823 703.487976 C 348.936066 684.0896 312.583099 658.092712 281.322937 626.593262 C 275.448334 620.613647 269.783569 614.424316 264.328522 608.130005 C 218.070496 552.701843 184.838913 487.600891 167.082214 417.623871 C 160.997833 395.174408 156.032349 372.44516 152.185837 349.436096 C 144.933014 303.982605 141.180466 258.039612 140.960999 212.011475 C 140.983887 208.568665 143.301559 205.564087 146.625916 204.668335 C 171.488174 199.423157 196.24559 193.233521 220.058899 185.7854 C 238.417145 180.225464 256.460693 173.931152 274.294373 166.692749 C 292.128082 159.454651 307.129456 152.530945 322.865112 144.243408 L 329.578979 140.676697 C 344.990936 132.635376 359.81897 123.521179 373.95343 113.401489 C 380.247742 108.785645 386.227203 103.960144 392.101807 98.819641 C 395.458832 95.882324 398.081451 92.735352 402.592255 92.420654 C 404.374146 92.315613 406.160553 92.315613 407.942474 92.420654 C 409.959351 92.352783 411.908081 93.155334 413.292542 94.623535 C 425.924866 106.22644 439.504822 116.753662 453.890411 126.094788 C 516.832886 166.902771 590.265869 190.506226 663.698853 205.717163 C 667.002563 206.644287 669.305847 209.629944 669.36377 213.060547 C 669.36377 220.299011 669.36377 227.537415 669.36377 234.880493 C 668.25238 281.913879 663.12854 328.766113 654.047668 374.927765 C 649.300476 398.865753 643.170837 422.508911 635.689453 445.738129 C 618.61499 500.161041 591.971924 551.102722 557.01123 596.170776 C 541.888062 614.921204 525.028564 632.202148 506.657166 647.783813 Z"/>
    </g>
    <path id="path6" fill="#0acf83" stroke="none" visibility="hidden" d="M 329.76001 380.790009 L 307.179993 438.700012 L 292.700012 438.700012 L 270.110016 380.790009 L 283.779999 380.790009 L 299.98999 424.790009 L 316.100006 380.790009 Z"/>
    <path id="path7" fill="#0acf83" stroke="none" visibility="hidden" d="M 363.709991 428.73999 C 370.709991 428.73999 375.869995 425.609985 378.649994 421.559998 L 388.959991 427.559998 C 383.630005 435.440002 374.959991 440.190002 363.589996 440.190002 C 344.47998 440.190002 332.089996 427.100006 332.089996 409.720001 C 332.089996 392.579987 344.47998 379.26001 362.669983 379.26001 C 379.929993 379.26001 391.73999 393.160004 391.73999 409.839996 C 391.706238 411.585144 391.552551 413.325928 391.279999 415.049988 L 345.179993 415.049988 C 347.149994 424.109985 354.440002 428.73999 363.709991 428.73999 Z M 379.119995 404.880005 C 377.380005 394.880005 370.119995 390.630005 362.549988 390.630005 C 353.169983 390.630005 346.799988 396.190002 345.059998 404.880005 Z"/>
    <path id="path8" fill="#0acf83" stroke="none" visibility="hidden" d="M 433.100006 379.73999 L 433.100006 393.299988 C 424.869995 392.720001 415.269989 396.559998 415.269989 409.559998 L 415.269989 438.75 L 402.76001 438.75 L 402.76001 380.790009 L 415.269989 380.790009 L 415.269989 390.559998 C 418.73999 382.639984 425.799988 379.73999 433.100006 379.73999 Z"/>
    <path id="path9" fill="#0acf83" stroke="none" visibility="hidden" d="M 498.089996 357.619995 L 498.089996 438.700012 L 485.579987 438.700012 L 485.579987 430.359985 C 481.179993 436.5 474.339996 440.209991 465.309998 440.209991 C 449.559998 440.209991 436.470001 426.889984 436.470001 409.73999 C 436.470001 392.589996 449.559998 379.279999 465.309998 379.279999 C 474.309998 379.279999 481.179993 382.98999 485.579987 389.01001 L 485.579987 357.619995 Z M 485.579987 409.73999 C 485.579987 398.970001 477.699982 391.209991 467.279999 391.209991 C 456.859985 391.209991 448.97998 398.970001 448.97998 409.73999 C 448.97998 420.51001 456.850006 428.279999 467.279999 428.279999 C 477.709991 428.279999 485.579987 420.559998 485.579987 409.73999 Z"/>
    <path id="path10" fill="#0acf83" stroke="none" visibility="hidden" d="M 571.070007 380.790009 L 571.070007 438.700012 L 558.559998 438.700012 L 558.559998 430.359985 C 554.160034 436.5 547.330017 440.209991 538.290039 440.209991 C 522.540039 440.209991 509.449982 426.889984 509.449982 409.73999 C 509.449982 392.589996 522.540039 379.279999 538.290039 379.279999 C 547.290039 379.279999 554.160034 382.98999 558.559998 389.01001 L 558.559998 380.790009 Z M 558.559998 409.73999 C 558.559998 398.970001 550.690002 391.209991 540.26001 391.209991 C 529.830017 391.209991 521.960022 398.970001 521.960022 409.73999 C 521.960022 420.51001 529.840027 428.279999 540.26001 428.279999 C 550.679993 428.279999 558.559998 420.559998 558.559998 409.73999 Z"/>
    <path id="path11" fill="#0acf83" stroke="none" visibility="hidden" d="M 627.72998 422.369995 C 627.72998 433.950012 617.650024 440.209991 605.140015 440.209991 C 593.549988 440.209991 585.219971 435 581.51001 426.649994 L 592.279968 420.399994 C 594.130005 425.609985 598.77002 428.73999 605.140015 428.73999 C 610.700012 428.73999 614.97998 426.889984 614.97998 422.25 C 614.97998 411.950012 583.830017 417.73999 583.830017 397 C 583.830017 386.119995 593.210022 379.279999 605.02002 379.279999 C 614.52002 379.279999 622.400024 383.679993 626.450012 391.279999 L 615.869995 397.23999 C 613.779968 392.720001 609.72998 390.630005 604.97998 390.630005 C 600.460022 390.630005 596.529968 392.630005 596.529968 396.769989 C 596.570007 407.309998 627.72998 400.940002 627.72998 422.369995 Z"/>
    <path id="path12" fill="#0acf83" stroke="none" visibility="hidden" d="M 690.73999 403.139984 L 690.73999 438.700012 L 678.23999 438.700012 L 678.23999 404.419983 C 678.23999 395.609985 673.140015 390.980011 665.23999 390.980011 C 657.02002 390.980011 650.529968 395.839996 650.529968 407.660004 L 650.529968 438.660004 L 638.039978 438.660004 L 638.039978 357.619995 L 650.549988 357.619995 L 650.549988 388.200012 C 654.369995 382.200012 660.630005 379.279999 668.549988 379.279999 C 681.47998 379.279999 690.73999 388.079987 690.73999 403.139984 Z"/>
</svg>
